<?xml version="1.0" encoding="UTF-8" standalone="no"?>
<!DOCTYPE svg PUBLIC "-//W3C//DTD SVG 1.1//EN" "http://www.w3.org/Graphics/SVG/1.1/DTD/svg11.dtd">
<svg version="1.1" xmlns="http://www.w3.org/2000/svg" xmlns:xlink="http://www.w3.org/1999/xlink" preserveAspectRatio="xMidYMid meet" viewBox="4.980327868852459 252.48196721311473 638.0196721311476 135.81489099278667" width="480.99" height="100"><defs><path d="M212.35 332.8L222.01 332.8L212.35 307.62L198.5 342.87L187.17 342.87L207.32 292.51L217.39 292.51L237.53 342.87L212.35 342.87L212.35 332.8Z" id="a4NUyNQWYJ"></path><path d="M287.9 292.51L300.49 292.51L313.08 309.3L325.67 292.51L338.26 292.51L319.37 317.69L338.26 342.87L325.67 342.87L313.08 326.09L300.49 342.87L287.9 342.87L306.78 317.69L287.9 292.51Z" id="c4tacoRI5"></path><path d="M418.41 342.87L408.34 342.87C408.34 312.66 408.34 295.87 408.34 292.51C408.34 292.51 418.41 292.51 418.41 292.51C418.41 299.23 418.41 316.01 418.41 342.87Z" id="b1aVbf021z"></path><path d="M488.92 292.51L539.28 292.51L539.28 342.87L488.92 342.87L488.92 292.51ZM529.21 302.58L498.99 302.58L498.99 332.8L529.21 332.8L529.21 302.58Z" id="g18C7tCUB"></path><path d="M589.64 292.51L599.71 292.51L629.93 328.18L629.93 292.51L640 292.51L640 342.87L629.93 342.87L599.71 308.46L599.71 342.87L589.64 342.87L589.64 292.51Z" id="b7DWcS1x6a"></path><path d="M26.44 316.01C31.48 306.78 36.93 297.97 42.39 288.73C43.65 285.38 46.58 285.38 48.68 288.31C55.4 297.13 61.69 306.36 68.41 315.17C70.5 318.11 70.5 320.63 68.41 323.15C61.69 332.38 54.98 341.61 48.26 350.85C46.16 353.78 43.23 353.36 41.55 350.43C36.51 341.61 31.06 332.38 26.02 323.57C25.6 322.73 25.18 321.05 24.76 319.79C25.18 318.53 25.6 316.85 26.44 316.01Z" id="bxCe4CTia"></path><path d="M63.37 369.31C62.95 369.31 62.53 369.31 62.11 369.31C60.43 369.31 59.59 368.47 59.17 367.21C58.33 365.95 59.17 365.11 59.59 364.28C66.73 354.62 73.86 344.55 81 334.9C81.84 333.64 82.26 333.64 83.1 334.9C86.87 339.93 90.65 344.97 94.43 350.01C97.78 354.62 101.56 359.66 104.92 364.28C106.18 366.37 104.92 368.89 102.82 369.31C102.4 369.31 101.56 369.31 101.14 369.31C94.43 369.31 88.13 369.31 81.84 369.31C75.54 369.31 69.67 369.31 63.37 369.31Z" id="a17X71Mtat"></path><path d="M100.72 270.27C101.98 270.27 103.24 270.69 104.08 271.95C104.92 273.21 104.92 274.05 104.08 275.72C98.2 284.12 92.33 292.09 86.45 300.49C85.61 301.74 84.35 303 83.51 304.26C82.26 305.94 82.26 305.94 81 304.26C79.32 302.16 77.64 299.65 75.96 297.55C70.92 290.41 65.47 283.28 60.43 276.14C59.59 274.89 59.17 274.05 60.01 272.79C60.85 271.53 61.69 270.69 63.37 270.69C67.99 270.69 72.18 270.69 76.8 270.69C78.9 270.27 80.58 270.27 82.26 270.27C88.55 270.27 94.43 270.27 100.72 270.27Z" id="i2v60bhYfV"></path><path d="M6.3 320.63C5.88 320.21 5.88 319.37 6.3 318.95C15.95 304.26 25.6 289.15 35.67 274.47C35.67 274.47 35.67 274.05 36.09 274.05C33.57 279.08 31.48 283.7 28.96 288.31C24.34 298.39 19.3 308.46 14.69 318.53C14.27 319.37 14.27 320.21 14.69 321.05C21.4 335.32 28.12 349.59 34.83 363.86C35.25 364.28 35.25 364.7 35.25 365.11C35.25 365.11 35.25 365.11 35.25 365.11C25.6 350.43 15.95 335.74 6.3 320.63Z" id="k1cWgov94r"></path><path d="M135.55 347.91C139.75 339.1 143.95 329.86 148.14 321.05C148.56 320.21 148.56 319.37 148.14 318.11C141.43 303.84 134.3 289.15 127.58 274.89C127.58 274.47 127.16 274.47 127.16 274.05C127.58 274.47 127.58 274.89 128 274.89C137.65 289.15 146.89 303.84 156.54 318.11C156.96 318.95 157.38 319.37 156.54 320.21C146.89 334.9 137.23 349.59 127.58 364.28C128 364.28 128 364.28 127.58 364.7C128 364.7 127.58 364.7 127.58 364.7C130.1 359.24 133.04 353.36 135.55 347.91Z" id="a173OtWJc"></path><path d="M67.99 255.16C72.6 254.74 76.8 253.9 81.42 253.48C83.1 253.48 85.19 253.9 86.87 253.9C91.91 254.32 96.94 255.16 102.4 255.58C107.02 256 111.63 256.84 117.09 257.26C112.89 257.68 109.11 258.1 105.34 258.52C100.3 258.94 95.27 259.78 90.23 260.2C87.71 260.62 85.19 261.04 82.26 261.04C79.32 261.04 76.38 260.62 73.44 260.2C68.41 260.2 63.79 259.36 58.75 258.94C55.4 258.52 51.62 258.1 47.84 257.68C54.56 256.84 61.27 256 67.99 255.16Z" id="e11QzvfxpN"></path><path d="M67.99 379.38C72.6 378.96 77.22 378.12 81.42 377.7C83.1 377.7 85.19 378.12 86.87 378.12C92.75 378.96 99.04 379.38 104.92 380.22C108.7 380.64 112.47 381.06 117.09 381.48C112.89 381.9 109.11 382.32 105.34 382.74C99.46 383.58 93.59 384 88.13 384.84C83.51 385.68 78.48 385.26 73.86 384.42C68.41 383.58 62.53 383.16 57.08 382.32C53.72 382.74 50.78 382.32 48.26 381.9C48.26 381.9 48.26 381.9 48.26 381.9C54.98 381.06 61.27 380.22 67.99 379.38Z" id="az7UfxTaQ"></path><path d="M137.65 316.01C132.62 306.78 127.16 297.97 121.7 288.73C120.45 285.38 117.51 285.38 115.41 288.31C108.7 297.13 102.4 306.36 95.69 315.17C93.59 318.11 93.59 320.63 95.69 323.15C102.4 332.38 109.11 341.61 115.83 350.85C117.93 353.78 120.87 353.36 122.54 350.43C127.58 341.61 133.04 332.38 138.07 323.57C138.91 322.73 138.91 321.05 139.33 319.79C138.91 318.53 138.49 316.85 137.65 316.01Z" id="b6Ddovrdww"></path></defs><g><g><use xlink:href="#a4NUyNQWYJ" opacity="1" fill="#ffffff" fill-opacity="1"></use><g><use xlink:href="#a4NUyNQWYJ" opacity="1" fill-opacity="0" stroke="#000000" stroke-width="1" stroke-opacity="0"></use></g></g><g><use xlink:href="#c4tacoRI5" opacity="1" fill="#ffffff" fill-opacity="1"></use><g><use xlink:href="#c4tacoRI5" opacity="1" fill-opacity="0" stroke="#000000" stroke-width="1" stroke-opacity="0"></use></g></g><g><use xlink:href="#b1aVbf021z" opacity="1" fill="#ffffff" fill-opacity="1"></use><g><use xlink:href="#b1aVbf021z" opacity="1" fill-opacity="0" stroke="#000000" stroke-width="1" stroke-opacity="0"></use></g></g><g><use xlink:href="#g18C7tCUB" opacity="1" fill="#ffffff" fill-opacity="1"></use><g><use xlink:href="#g18C7tCUB" opacity="1" fill-opacity="0" stroke="#000000" stroke-width="1" stroke-opacity="0"></use></g></g><g><use xlink:href="#b7DWcS1x6a" opacity="1" fill="#ffffff" fill-opacity="1"></use><g><use xlink:href="#b7DWcS1x6a" opacity="1" fill-opacity="0" stroke="#000000" stroke-width="1" stroke-opacity="0"></use></g></g><g><use xlink:href="#bxCe4CTia" opacity="1" fill="#4c598e" fill-opacity="1"></use><g><use xlink:href="#bxCe4CTia" opacity="1" fill-opacity="0" stroke="#000000" stroke-width="1" stroke-opacity="0"></use></g></g><g><use xlink:href="#a17X71Mtat" opacity="1" fill="#4c598e" fill-opacity="1"></use><g><use xlink:href="#a17X71Mtat" opacity="1" fill-opacity="0" stroke="#000000" stroke-width="1" stroke-opacity="0"></use></g></g><g><use xlink:href="#i2v60bhYfV" opacity="1" fill="#4c598e" fill-opacity="1"></use><g><use xlink:href="#i2v60bhYfV" opacity="1" fill-opacity="0" stroke="#000000" stroke-width="1" stroke-opacity="0"></use></g></g><g><use xlink:href="#k1cWgov94r" opacity="1" fill="#4c598e" fill-opacity="1"></use><g><use xlink:href="#k1cWgov94r" opacity="1" fill-opacity="0" stroke="#000000" stroke-width="1" stroke-opacity="0"></use></g></g><g><use xlink:href="#a173OtWJc" opacity="1" fill="#4c598e" fill-opacity="1"></use><g><use xlink:href="#a173OtWJc" opacity="1" fill-opacity="0" stroke="#000000" stroke-width="1" stroke-opacity="0"></use></g></g><g><use xlink:href="#e11QzvfxpN" opacity="1" fill="#4c598e" fill-opacity="1"></use><g><use xlink:href="#e11QzvfxpN" opacity="1" fill-opacity="0" stroke="#000000" stroke-width="1" stroke-opacity="0"></use></g></g><g><use xlink:href="#az7UfxTaQ" opacity="1" fill="#4c598e" fill-opacity="1"></use><g><use xlink:href="#az7UfxTaQ" opacity="1" fill-opacity="0" stroke="#000000" stroke-width="1" stroke-opacity="0"></use></g></g><g><use xlink:href="#b6Ddovrdww" opacity="1" fill="#4c598e" fill-opacity="1"></use><g><use xlink:href="#b6Ddovrdww" opacity="1" fill-opacity="0" stroke="#000000" stroke-width="1" stroke-opacity="0"></use></g></g></g></svg>